<svg width="96" height="96" xmlns="http://www.w3.org/2000/svg" xmlns:xlink="http://www.w3.org/1999/xlink" xml:space="preserve" overflow="hidden"><g transform="translate(-354 -94)"><path d="M441.907 102.093C440.272 100.447 437.951 99.6777 435.656 100.021 433.225 100.423 430.992 101.607 429.294 103.392L422.194 110.492 418.81 107.109C418.029 106.328 416.763 106.327 415.982 107.108 415.981 107.109 415.981 107.109 415.981 107.109L408.3 114.788C407.519 115.569 407.518 116.835 408.299 117.616 408.3 117.617 408.3 117.617 408.3 117.617L411.134 120.451 366.113 165.474 365.984 165.596C365.649 165.913 365.575 166.419 365.804 166.819 365.804 166.819 366.165 167.449 366.225 167.562 367.46 169.887 367.027 172.746 365.158 174.6L361.267 178.492C360.118 179.603 360.011 181.409 361.021 182.648 362.098 183.907 363.992 184.055 365.251 182.978 365.31 182.928 365.366 182.876 365.421 182.821L369.4 178.842C371.251 176.978 374.102 176.543 376.425 177.768L377.236 178.19C377.62 178.389 378.088 178.32 378.397 178.017L423.551 132.865 426.383 135.7C427.164 136.481 428.43 136.482 429.211 135.701 429.212 135.7 429.212 135.7 429.212 135.7L436.891 128.021C437.672 127.24 437.672 125.974 436.892 125.193 436.891 125.192 436.891 125.192 436.891 125.192L433.607 121.909 440.707 114.809C442.5 113.096 443.67 110.833 444.03 108.38 444.344 106.068 443.559 103.742 441.907 102.093ZM377.507 176.078 377.356 176C374.258 174.362 370.454 174.943 367.985 177.429L364.008 181.408C363.6 181.798 362.953 181.783 362.563 181.374 362.555 181.366 362.547 181.357 362.539 181.348 362.213 180.902 362.274 180.282 362.681 179.908L366.572 176.02C369.066 173.546 369.644 169.729 367.993 166.628 367.98 166.604 367.954 166.556 367.92 166.496L391.8 142.615 401.386 152.2ZM402.8 150.787 393.214 141.2 412.55 121.865 422.136 131.45ZM435.476 126.6 427.8 134.283 409.717 116.2 417.393 108.522 417.393 108.522ZM439.294 113.387C439.147 113.534 434.609 118.071 432.194 120.487L423.608 111.901 430.708 104.801C433.972 101.538 437.997 101.001 440.494 103.501 443.01 106.023 442.505 110.181 439.294 113.392Z" stroke="#000000" stroke-width="3"/></g></svg>