<svg width="153" height="162" xmlns="http://www.w3.org/2000/svg" xmlns:xlink="http://www.w3.org/1999/xlink" xml:space="preserve" overflow="hidden"><defs><clipPath id="clip0"><rect x="658" y="41" width="153" height="162"/></clipPath><clipPath id="clip1"><path d="M732.512 10.9102 629.344 140.389 747.557 234.154 850.725 104.675Z" fill-rule="evenodd" clip-rule="evenodd"/></clipPath><clipPath id="clip2"><path d="M732.512 10.9102 629.344 140.389 747.557 234.154 850.725 104.675Z" fill-rule="evenodd" clip-rule="evenodd"/></clipPath><clipPath id="clip3"><path d="M732.512 10.9102 629.344 140.389 747.557 234.154 850.725 104.675Z" fill-rule="evenodd" clip-rule="evenodd"/></clipPath></defs><g clip-path="url(#clip0)" transform="translate(-658 -41)"><g clip-path="url(#clip1)"><g clip-path="url(#clip2)"><g clip-path="url(#clip3)"><path d="M119.607 67.5834C119.607 70.2556 117.564 72.2988 114.892 72.2988 112.22 72.2988 110.177 70.2556 110.177 67.5834L110.177 50.2948C110.177 52.9666 108.134 55.0097 105.462 55.0097 102.79 55.0097 100.747 52.9666 100.747 50.2948L100.747 40.8645C100.747 43.5363 98.7034 45.5795 96.0316 45.5795 93.3598 45.5795 91.3166 43.5363 91.3166 40.8645L91.3166 34.4205C88.8018 34.5777 86.287 34.5777 83.4579 34.5777 63.9687 34.5777 51.552 30.9627 47.3087 28.2908 51.552 25.6189 63.9687 22.004 83.4579 22.004 102.947 22.004 115.364 25.6189 119.607 28.2908L119.607 67.5834ZM29.391 83.3006C28.1336 82.0433 29.8625 74.185 39.45 61.6113L39.45 80.7861C33.949 83.6152 30.334 84.2438 29.391 83.3006ZM83.4579 15.7171C59.0964 15.7171 39.45 21.3753 39.45 28.2908L39.45 51.552C38.664 52.4953 37.8784 53.4382 36.9351 54.5385 30.9627 62.0825 17.6032 80.3145 24.9902 87.7016 26.4048 89.1161 28.448 89.9021 30.8056 89.9021 40.0786 89.9021 55.3244 79.3716 67.8981 66.9548 68.841 67.2691 69.7839 67.5834 70.8842 67.5834 75.2849 67.5834 78.7429 64.1257 78.7429 59.7251 78.7429 55.3244 75.2849 51.8663 70.8842 51.8663 66.4835 51.8663 63.0258 55.3244 63.0258 59.7251 63.0258 60.668 63.1828 61.6113 63.4971 62.3968 61.9256 63.9687 60.1967 65.5403 58.6248 66.7979 57.3676 64.7547 56.5816 62.2399 56.5816 59.5677 56.5816 51.7093 62.8685 45.4225 70.7269 45.4225 78.5856 45.4225 84.8725 51.7093 84.8725 59.5677 84.8725 67.4265 78.5856 73.7133 70.7269 73.7133 70.4126 73.7133 69.9413 73.7133 69.627 73.7133 62.7112 80.1571 50.6091 90.3734 39.2926 94.3027L39.2926 122.594C39.2926 129.509 59.0964 135.167 83.3006 135.167 107.505 135.167 127.309 129.509 127.309 122.594L127.309 28.2908C127.466 21.3753 107.819 15.7171 83.4579 15.7171Z" transform="matrix(-0.683756 0.858134 0.783468 0.621436 732.512 10.9102)"/></g></g></g><path d="M256.797 143.81 256.797 143.81C262.136 139.946 276.52 129.843 283.668 121.861 289.694 115.132 304.152 146.641 308.25 152.27 312.347 157.899 308.622 154.541 308.254 155.636 307.601 157.58 305.699 161.985 303.524 164.152 302.641 165.031 301.671 165.825 300.744 166.662 297.412 167.965 294.224 169.884 290.75 170.569 289.59 170.798 288.493 169.958 287.655 169.245 285.625 167.514 284.158 165.246 282.287 163.358 281.195 162.256 280.094 161.135 278.778 160.285 275.54 158.195 276.962 159.289 274.444 157.084 273.342 155.79 272.38 154.371 271.139 153.202 269.461 151.619 268.13 151.566 266.291 150.341 265.828 150.034 261.347 146.859 260.202 145.604 259.822 145.188 257.365 144.109 256.797 143.81Z" stroke="#000000" stroke-width="2.44378" stroke-miterlimit="8" fill-rule="evenodd" transform="matrix(1.00227 0 0 1 411.615 -8.99035)"/></g></svg>