<svg width="96" height="96" xmlns="http://www.w3.org/2000/svg" xmlns:xlink="http://www.w3.org/1999/xlink" xml:space="preserve" overflow="hidden"><g transform="translate(-484 -213)"><path d="M509.87 281.109C510.16 282.398 510.892 283.545 511.939 284.351L523.067 292.9 523.067 299.91C523.067 300.462 523.515 300.91 524.067 300.91 524.619 300.91 525.067 300.462 525.067 299.91L525.067 292.41C525.067 292.099 524.923 291.806 524.677 291.617L513.158 282.767C512.482 282.246 512.009 281.505 511.821 280.673L505.8 253.834C505.325 251.693 506.676 249.573 508.816 249.099 508.941 249.071 509.067 249.049 509.194 249.034 511.287 248.861 513.179 250.282 513.594 252.341L518.094 270.248C518.226 270.784 518.768 271.112 519.304 270.98 519.754 270.869 520.069 270.464 520.065 270L520.065 231.145C520.03 229.06 521.569 227.283 523.637 227.019 525.82 226.803 527.765 228.398 527.981 230.581 527.993 230.709 528 230.839 528 230.968 528.004 231.074 528.025 231.178 528.063 231.277L528.063 260C528.063 260.552 528.511 261 529.063 261 529.615 261 530.063 260.552 530.063 260L530.063 225.145C530.028 223.06 531.567 221.282 533.636 221.019 535.82 220.804 537.765 222.4 537.981 224.584 537.993 224.712 538 224.84 538 224.969L538 260C538 260.552 538.448 261 539 261 539.552 261 540 260.552 540 260L540 231.145C539.965 229.061 541.503 227.283 543.571 227.019 545.755 226.803 547.7 228.397 547.917 230.581 547.929 230.709 547.936 230.839 547.936 230.968L547.936 260C547.936 260.552 548.384 261 548.936 261 549.488 261 549.936 260.552 549.936 260L549.936 241.444C550.017 241.302 550.061 241.142 550.065 240.979 550.065 238.787 551.842 237.01 554.034 237.01 554.165 237.01 554.296 237.016 554.426 237.029 556.503 237.305 558.042 239.096 558 241.191L558 275.661C558.001 279.535 556.819 283.316 554.612 286.5L553.021 288.8C551.747 290.637 551.063 292.818 551.059 295.053L551.049 299.914C551.049 300.466 551.497 300.914 552.049 300.914L552.049 300.914C552.601 300.914 553.049 300.466 553.049 299.914L553.059 295.046C553.062 293.221 553.62 291.441 554.659 289.941L556.259 287.632C558.695 284.118 560 279.945 560 275.669L560 241.191C560.035 238.068 557.715 235.418 554.615 235.039 552.938 234.88 551.271 235.432 550.021 236.561 549.991 236.588 549.965 236.619 549.936 236.646L549.936 231.217C549.943 227.892 547.33 225.152 544.009 225 542.53 224.99 541.1 225.533 540 226.522L540 225.177C540.044 222.127 537.832 219.513 534.817 219.051 531.545 218.621 528.544 220.924 528.114 224.196 528.08 224.452 528.063 224.71 528.063 224.969L528.063 226.579C526.969 225.567 525.534 225.003 524.043 225 520.698 225.12 518.052 227.874 518.065 231.221L518.065 261.834C518.063 261.839 518.058 261.842 518.052 261.84 518.049 261.839 518.047 261.837 518.046 261.834L515.546 251.871C514.898 248.815 512.055 246.735 508.946 247.042 505.675 247.441 503.347 250.415 503.746 253.686 503.769 253.882 503.803 254.076 503.846 254.268Z" stroke="#000000" stroke-width="3"/></g></svg>