<svg width="489" height="489" xmlns="http://www.w3.org/2000/svg" xmlns:xlink="http://www.w3.org/1999/xlink" xml:space="preserve" overflow="hidden"><g transform="translate(-2261 -199)"><path d="M127.344 362.165C137.531 372.353 137.531 388.144 127.344 398.331L84.0468 412.594 76.4062 404.953 90.6687 361.656C101.366 351.978 117.156 351.978 127.344 362.165ZM327.528 96.2718 72.8406 351.469 40.75 448.25 138.041 416.159 392.728 161.472" transform="matrix(1 0 0 1 2261 199)"/><path d="M442.647 82.5187 406.481 46.3531C398.331 38.2031 385.597 38.2031 377.447 46.3531L341.79 82.0093 406.481 146.7 442.137 111.044C450.797 103.403 450.797 90.6687 442.647 82.5187Z" transform="matrix(1 0 0 1 2261 199)"/></g></svg>