<svg width="472" height="466" xmlns="http://www.w3.org/2000/svg" xmlns:xlink="http://www.w3.org/1999/xlink" xml:space="preserve" overflow="hidden"><g transform="translate(89 776)"><path d="M40.7085-452.977C47.9016-447.272 58.2009-448.933 64.4779-456.809 70.7549-464.686 70.0544-475.07 62.8616-480.774L16.3244-517.68C23.5165-511.976 33.8154-513.637 40.0924-521.514 46.3694-529.39 45.6692-539.773 38.4775-545.477L13.0931-565.608C20.2849-559.904 30.5856-561.567 36.8623-569.443 43.1389-577.319 42.4388-587.703 35.247-593.407L17.901-607.163C24.2321-614.24 30.1398-621.653 36.7858-629.993 82.5698-687.442 102.008-731.761 104.785-749.973 87.6241-743.168 48.7241-714.283 2.94035-656.834-42.8434-599.384-62.2829-555.065-65.0585-536.854L40.7085-452.977ZM294.951-685.361C294.521-691.751 269.306-703.43 212.938-702.009L264.552-661.077C285.09-671.254 295.275-680.568 294.951-685.361ZM-13.9829-670.254C43.2471-742.066 104.631-787.901 123.246-773.138L185.86-723.483C190.246-723.786 194.63-724.089 199.807-724.521 234.144-726.022 314.605-726.483 317.136-688.939 317.62-681.749 314.936-674.049 309.398-667.099 287.614-639.764 223.452-617.303 160.491-606.744 159.122-603.294 157.753-599.843 155.168-596.6 144.83-583.628 127.399-580.815 115.554-590.209 103.708-599.604 102.523-617.179 112.861-630.151 123.199-643.123 140.631-645.934 152.476-636.54 155.014-634.527 157.185-632.05 158.561-629.447 166.484-630.724 174.776-632.466 181.854-634.415 179.307-642.482 174.384-650.167 167.191-655.872 146.038-672.647 114.346-667.535 95.8853-644.37 77.4237-621.205 79.5774-589.252 100.73-572.477 121.885-555.701 153.576-560.812 172.038-583.978 172.776-584.905 173.884-586.294 174.622-587.22 208.214-593.851 264.144-607.717 301.306-632.687L377.46-572.294C396.073-557.533 364.78-487.078 307.92-415.729 251.059-344.38 189.305-298.081 170.691-312.842L-83.1519-514.15C-102.136-528.45-71.2118-598.443-13.9829-670.254Z" fill="#FFFFFF" fill-rule="evenodd"/><path d="M-79.0889-524.248-79.0889-524.248C-60.6782-537.547-11.078-572.319 13.5708-599.791 34.3503-622.951 84.2059-514.505 98.337-495.131 112.465-475.757 99.6197-487.315 98.3507-483.546 96.099-476.855 89.5402-461.694 82.0401-454.236 78.9955-451.211 75.6503-448.478 72.454-445.597 60.964-441.113 49.971-434.508 37.9916-432.15 33.9916-431.362 30.2087-434.253 27.319-436.707 20.3188-442.665 15.2601-450.471 8.80862-456.969 5.04303-460.762 1.24639-464.62-3.29146-467.545-14.4571-474.739-9.5537-470.973-18.2364-478.562-22.0367-483.016-25.354-487.9-29.6332-491.923-35.4194-497.371-40.0092-497.554-46.3506-501.77-47.9471-502.827-63.3992-513.755-67.3475-518.074-68.6576-519.506-77.1301-523.219-79.0889-524.248Z" stroke="#FFFFFF" stroke-width="8.40988" stroke-miterlimit="8" fill="#FFFFFF" fill-rule="evenodd"/></g></svg>