<svg width="480" height="480" xmlns="http://www.w3.org/2000/svg" xmlns:xlink="http://www.w3.org/1999/xlink" xml:space="preserve" overflow="hidden"><g transform="translate(197 -735)"><path d="M68.4337 194.626C73.9084 200.1 73.9084 208.586 68.4337 214.06L45.1662 221.725 41.0602 217.619 48.7248 194.351C54.4731 189.15 62.959 189.15 68.4337 194.626ZM176.011 51.7359 39.144 188.877 21.8988 240.886 74.1822 223.641 211.049 86.7739" stroke="#FFFFFF" fill="#FFFFFF" transform="matrix(1 2.13309e-17 2.1331e-17 1.34836 33.55 754.376)"/><path d="M237.876 44.3451 218.44 24.9098C214.06 20.5301 207.217 20.5301 202.837 24.9098L183.676 44.0713 218.44 78.8355 237.602 59.6742C242.255 55.5681 242.255 48.7248 237.876 44.3451Z" stroke="#FFFFFF" fill="#FFFFFF" transform="matrix(1 2.13309e-17 2.1331e-17 1.34836 33.55 754.376)"/><path d="M68.4336 194.624C73.9083 200.1 73.9083 208.586 68.4336 214.06L45.1661 221.725 41.0601 217.619 48.7247 194.351C54.4731 189.15 62.9589 189.15 68.4336 194.624ZM176.011 51.7357 39.144 188.877 21.8988 240.886 74.182 223.641 211.049 86.7738" stroke="#FFFFFF" fill="#FFFFFF" transform="matrix(-1 -2.13309e-17 2.13308e-17 1.34836 59.7 754.376)"/><path d="M237.876 44.3449 218.44 24.9098C214.06 20.5301 207.217 20.5301 202.837 24.9098L183.675 44.0712 218.44 78.8354 237.601 59.6741C242.255 55.5681 242.255 48.7247 237.876 44.3449Z" stroke="#FFFFFF" fill="#FFFFFF" transform="matrix(-1 -2.13309e-17 2.13308e-17 1.34836 59.7 754.376)"/><path d="M0 0 0.000471826 325.042" stroke="#FFFFFF" stroke-width="8.9883" stroke-miterlimit="8" fill="#FFFFFF" fill-rule="evenodd" transform="matrix(1 2.13309e-17 2.1331e-17 1.34836 45.97 754.164)"/></g></svg>