<svg width="96" height="96" xmlns="http://www.w3.org/2000/svg" xmlns:xlink="http://www.w3.org/1999/xlink" xml:space="preserve" overflow="hidden"><g transform="translate(-1917 -262)"><path d="M1942.87 330.109C1943.16 331.398 1943.89 332.545 1944.94 333.351L1956.07 341.9 1956.07 348.91C1956.07 349.462 1956.52 349.91 1957.07 349.91 1957.62 349.91 1958.07 349.462 1958.07 348.91L1958.07 341.41C1958.07 341.099 1957.92 340.806 1957.68 340.617L1946.16 331.767C1945.48 331.246 1945.01 330.505 1944.82 329.673L1938.8 302.834C1938.32 300.693 1939.68 298.573 1941.82 298.099 1941.94 298.071 1942.07 298.049 1942.19 298.034 1944.29 297.861 1946.18 299.282 1946.59 301.341L1951.09 319.248C1951.23 319.784 1951.77 320.112 1952.3 319.98 1952.75 319.869 1953.07 319.464 1953.06 319L1953.06 280.145C1953.03 278.06 1954.57 276.283 1956.64 276.019 1958.82 275.803 1960.77 277.398 1960.98 279.581 1960.99 279.709 1961 279.839 1961 279.968 1961 280.074 1961.03 280.178 1961.06 280.277L1961.06 309C1961.06 309.552 1961.51 310 1962.06 310 1962.61 310 1963.06 309.552 1963.06 309L1963.06 274.145C1963.03 272.06 1964.57 270.282 1966.64 270.019 1968.82 269.804 1970.77 271.4 1970.98 273.584 1970.99 273.712 1971 273.84 1971 273.969L1971 309C1971 309.552 1971.45 310 1972 310 1972.55 310 1973 309.552 1973 309L1973 280.145C1972.97 278.061 1974.5 276.283 1976.57 276.019 1978.76 275.803 1980.7 277.397 1980.92 279.581 1980.93 279.709 1980.94 279.839 1980.94 279.968L1980.94 309C1980.94 309.552 1981.38 310 1981.94 310 1982.49 310 1982.94 309.552 1982.94 309L1982.94 290.444C1983.02 290.302 1983.06 290.142 1983.06 289.979 1983.06 287.787 1984.84 286.01 1987.03 286.01 1987.17 286.01 1987.3 286.016 1987.43 286.029 1989.5 286.305 1991.04 288.096 1991 290.191L1991 324.661C1991 328.535 1989.82 332.316 1987.61 335.5L1986.02 337.8C1984.75 339.637 1984.06 341.818 1984.06 344.053L1984.05 348.914C1984.05 349.466 1984.5 349.914 1985.05 349.914L1985.05 349.914C1985.6 349.914 1986.05 349.466 1986.05 348.914L1986.06 344.046C1986.06 342.221 1986.62 340.441 1987.66 338.941L1989.26 336.632C1991.7 333.118 1993 328.945 1993 324.669L1993 290.191C1993.03 287.068 1990.72 284.418 1987.61 284.039 1985.94 283.88 1984.27 284.432 1983.02 285.561 1982.99 285.588 1982.97 285.619 1982.94 285.646L1982.94 280.217C1982.94 276.892 1980.33 274.152 1977.01 274 1975.53 273.99 1974.1 274.533 1973 275.522L1973 274.177C1973.04 271.127 1970.83 268.513 1967.82 268.051 1964.54 267.621 1961.54 269.924 1961.11 273.196 1961.08 273.452 1961.06 273.71 1961.06 273.969L1961.06 275.579C1959.97 274.567 1958.53 274.003 1957.04 274 1953.7 274.12 1951.05 276.874 1951.06 280.221L1951.06 310.834C1951.06 310.839 1951.06 310.842 1951.05 310.84 1951.05 310.839 1951.05 310.837 1951.05 310.834L1948.55 300.871C1947.9 297.815 1945.05 295.735 1941.95 296.042 1938.68 296.441 1936.35 299.415 1936.75 302.686 1936.77 302.882 1936.8 303.076 1936.85 303.268Z" stroke="#FFFFFF" stroke-width="3"/></g></svg>