<svg width="1402" height="1402" xmlns="http://www.w3.org/2000/svg" xmlns:xlink="http://www.w3.org/1999/xlink" xml:space="preserve" overflow="hidden"><defs><clipPath id="clip0"><rect x="-2355" y="-701" width="1402" height="1402"/></clipPath></defs><g clip-path="url(#clip0)" transform="translate(2355 701)"><path d="M-2057.31 405.065C-2022.29 440.088-2022.29 494.373-2057.31 529.393L-2206.16 578.425-2232.42 552.158-2183.39 403.315C-2146.62 370.045-2092.34 370.045-2057.31 405.065ZM-1369.14-509-2244.68 368.295-2355 701-2020.54 590.681-1145-284.86" fill="#FFFFFF" fill-rule="evenodd"/><path d="M-973.769-555.651-1097.92-679.985C-1125.9-708.005-1169.62-708.005-1197.59-679.985L-1320-557.402-1097.92-335-975.52-457.583C-945.791-483.852-945.791-527.631-973.769-555.651Z" fill="#FFFFFF" fill-rule="evenodd"/></g></svg>