<svg width="299" height="299" xmlns="http://www.w3.org/2000/svg" xmlns:xlink="http://www.w3.org/1999/xlink" xml:space="preserve" overflow="hidden"><g transform="translate(-1280 593)"><path d="M1566.34-579.633C1560.72-585.293 1552.74-587.938 1544.85-586.758 1536.49-585.376 1528.81-581.304 1522.98-575.167L1498.57-550.753 1486.93-562.386C1484.25-565.071 1479.89-565.075 1477.21-562.389 1477.21-562.386 1477.21-562.386 1477.21-562.386L1450.8-535.981C1448.11-533.296 1448.11-528.943 1450.79-526.257 1450.8-526.254 1450.8-526.254 1450.8-526.254L1460.54-516.509 1305.76-361.698 1305.31-361.278C1304.16-360.188 1303.91-358.448 1304.7-357.073 1304.7-357.073 1305.94-354.907 1306.14-354.518 1310.39-346.524 1308.9-336.693 1302.47-330.318L1289.1-316.935C1285.15-313.115 1284.78-306.905 1288.25-302.645 1291.95-298.316 1298.47-297.807 1302.79-301.51 1303-301.682 1303.19-301.861 1303.38-302.05L1317.06-315.732C1323.42-322.141 1333.22-323.637 1341.21-319.425L1344-317.974C1345.32-317.29 1346.93-317.527 1347.99-318.569L1503.23-473.824 1512.97-464.075C1515.65-461.39 1520.01-461.387 1522.69-464.072 1522.69-464.075 1522.69-464.075 1522.69-464.075L1549.09-490.48C1551.78-493.165 1551.78-497.519 1549.1-500.204 1549.09-500.207 1549.09-500.207 1549.09-500.207L1537.8-511.496 1562.21-535.909C1568.38-541.799 1572.4-549.581 1573.64-558.015 1574.72-565.965 1572.02-573.963 1566.34-579.633ZM1344.93-325.236 1344.41-325.504C1333.76-331.136 1320.68-329.139 1312.19-320.591L1298.52-306.909C1297.12-305.568 1294.89-305.619 1293.55-307.026 1293.53-307.053 1293.5-307.084 1293.47-307.115 1292.35-308.648 1292.56-310.78 1293.96-312.066L1307.34-325.435C1315.91-333.942 1317.9-347.067 1312.22-357.73 1312.18-357.812 1312.09-357.977 1311.97-358.183L1394.07-440.298 1427.03-407.34ZM1431.89-412.199 1398.93-445.164 1465.41-511.647 1498.37-478.689ZM1544.23-495.366 1517.84-468.948 1455.67-531.126 1482.06-557.527 1482.06-557.527ZM1557.36-540.799C1556.85-540.294 1541.25-524.693 1532.95-516.385L1503.43-545.909 1527.84-570.322C1539.06-581.542 1552.9-583.388 1561.48-574.792 1570.13-566.12 1568.4-551.823 1557.36-540.782Z" stroke="#FFFFFF" stroke-width="10.3125" stroke-miterlimit="8" fill="#FFFFFF" fill-rule="evenodd"/></g></svg>